# xmcd CD database file
#
# Track frame offsets:
#	182
#	13825
#	28622
#	41712
#	61535
#	83497
#	95542
#	107830
#	118880
#	130172
#	140357
#	154355
#	168010
#	182905
#	197060
#	209915
#	223317
#	235677
#	249382
#	262860
#	276997
#	289022
#
# Disc length: 4041 seconds
#
# Revision: 0
# Processed by: cddbd v1.5.1PL0 Copyright (c) Steve Scherf et al.
# Submitted via: CDex 1.50beta10
#
DISCID=430fc716
DTITLE=Teddy Wilson - 1942-45
DYEAR=1900
DGENRE=Jazz
TTITLE0=These Foolish Things
TTITLE1=You're My Favorite Memory
TTITLE2=B Flat Swing
TTITLE3=How High the Moon
TTITLE4=Russian Lullaby
TTITLE5=I Know That You Know
TTITLE6=Blues
TTITLE7=Stompin' At the Savoy
TTITLE8=Undecided
TTITLE9=China Boy
TTITLE10=Ev'ry Time We Say Goodbye
TTITLE11=Just You, Just Me
TTITLE12=Just for You Blues
TTITLE13=This Heart of Mine
TTITLE14=Bugle Call Rag
TTITLE15=Runnin' Wild
TTITLE16=I Surrender, Dear
TTITLE17=Memories of You
TTITLE18=If Dreams Come True
TTITLE19=I Can't Get Started
TTITLE20=Stompin' at the Savoy
TTITLE21=Blues Too
EXTD=
EXTT0=
EXTT1=
EXTT2=
EXTT3=
EXTT4=
EXTT5=
EXTT6=
EXTT7=
EXTT8=
EXTT9=
EXTT10=
EXTT11=
EXTT12=
EXTT13=
EXTT14=
EXTT15=
EXTT16=
EXTT17=
EXTT18=
EXTT19=
EXTT20=
EXTT21=
PLAYORDER=
